<svg width="225" height="31" viewBox="0 0 225 31" fill="none" xmlns="http://www.w3.org/2000/svg">
<path d="M18.468 20.196H23.585C22.682 23.335 20.274 25.055 16.834 25.055C12.663 25.055 8.234 22.217 8.234 14.864C8.234 9.317 11.631 5.533 16.619 5.533C18.511 5.533 20.102 5.963 21.607 7.038C23.026 8.027 24.101 9.446 24.66 11.166H29.605V0.802999H24.66V3.211C22.596 1.362 19.285 0.329998 15.544 0.329998C6.428 0.329998 0.064 6.522 0.064 15.337C0.064 23.55 5.439 30.387 16.318 30.387C23.026 30.387 32.744 26.99 32.142 15.251H18.468V20.196ZM57.2863 19.809C57.2863 12.972 52.5133 9.188 46.5793 9.188C41.0753 9.188 35.9153 12.671 35.9153 19.809C35.9153 26.56 40.5593 30.473 46.5793 30.473C52.9433 30.473 57.2863 26.216 57.2863 19.809ZM50.6213 19.809C50.6213 23.378 49.1593 25.442 46.5793 25.442C44.0853 25.442 42.5803 23.378 42.5803 19.938C42.5803 16.283 43.9993 14.219 46.5793 14.219C49.1593 14.219 50.6213 16.283 50.6213 19.809ZM75.5717 25.055H71.5297V19.379H76.2597C83.5697 19.379 86.7947 15.122 86.7947 10.091C86.7947 4.931 82.9677 0.802999 76.8617 0.802999H60.2637V5.748H63.9187V25.055H60.2637V30H75.5717V25.055ZM71.5297 14.434V5.748H74.4537C76.9047 5.748 78.7107 7.425 78.7107 10.134C78.7107 13.015 77.1197 14.434 73.6367 14.434H71.5297ZM103.091 25.313H99.1353V23.163C99.1353 19.035 100.554 15.509 105.8 15.509H106.574V9.36H105.628C102.274 9.36 99.7373 11.295 98.5333 14.821H98.4473V9.661H89.1163V14.348H92.5563V25.313H88.7723V30H103.091V25.313ZM129.891 19.809C129.891 12.972 125.118 9.188 119.184 9.188C113.68 9.188 108.52 12.671 108.52 19.809C108.52 26.56 113.164 30.473 119.184 30.473C125.548 30.473 129.891 26.216 129.891 19.809ZM123.226 19.809C123.226 23.378 121.764 25.442 119.184 25.442C116.69 25.442 115.185 23.378 115.185 19.938C115.185 16.283 116.604 14.219 119.184 14.219C121.764 14.219 123.226 16.283 123.226 19.809ZM132.352 14.348H134.932V25.442C134.932 29.054 137.727 30.301 140.307 30.301C141.898 30.301 143.532 29.957 145.166 29.269V24.883C144.263 25.184 143.876 25.27 143.188 25.27C141.812 25.27 141.511 24.926 141.511 23.163V14.348H145.166V9.661H141.511V1.835L134.932 6.479V9.661H132.352V14.348ZM164.204 23.894C162.312 25.7 161.194 26.259 159.474 26.259C155.776 26.259 154.529 23.507 154.486 21.185H169.364C169.88 13.875 164.978 9.188 158.872 9.188C152.508 9.188 147.907 13.832 147.907 20.196C147.907 26.517 152.336 30.473 159.388 30.473C163.817 30.473 167.257 28.753 169.364 25.485L164.204 23.894ZM154.486 17.573C154.873 14.778 156.292 13.445 158.657 13.445C161.022 13.445 162.613 14.993 162.957 17.573H154.486ZM193.24 9.661H188.768V11.338C186.661 9.962 184.855 9.36 182.619 9.36C176.685 9.36 172.342 13.789 172.342 19.809C172.342 26.259 176.943 30.473 183.952 30.473C188.639 30.473 191.993 28.366 193.799 24.324L188.768 22.088C187.607 24.195 185.629 25.442 183.608 25.442C180.727 25.442 179.007 23.292 179.007 19.766C179.007 16.584 180.856 14.52 183.78 14.52C186.016 14.52 187.736 15.681 188.768 17.917H193.24V9.661ZM196.012 14.348H198.592V25.442C198.592 29.054 201.387 30.301 203.967 30.301C205.558 30.301 207.192 29.957 208.826 29.269V24.883C207.923 25.184 207.536 25.27 206.848 25.27C205.472 25.27 205.171 24.926 205.171 23.163V14.348H208.826V9.661H205.171V1.835L198.592 6.479V9.661H196.012V14.348Z" fill="black"/>
<path d="M215.297 20.816V30H224.481V20.816H215.297Z" fill="#AD1028"/>
</svg>
